<svg width="92" height="92" viewBox="0 0 92 92" fill="none" xmlns="http://www.w3.org/2000/svg">
<rect width="91.56" height="91.56" rx="20" fill="#EFE6F8"/>
<path d="M58.2486 48.673L51.6482 54.7914H45.0478L39.2724 60.1449V54.7914H31.847V31.8477H58.2486V48.673Z" fill="#9146FF"/>
<path d="M35.3302 25.8789L33.3398 27.8693L29.8565 50.2617L40.3063 55.7354L41.7991 57.7259L51.7513 54.2426L62.6987 45.7833L63.1963 37.8215L62.6987 26.3765L61.2059 25.8789H35.3302Z" fill="white"/>
<path d="M34.1262 23.8867L25.8757 31.5346V59.0671H35.7763V66.715L44.0268 59.0671H50.6272L65.4781 45.3008V23.8867H34.1262ZM62.1779 43.7713L55.5775 49.8896H48.9771L43.2017 55.2431V49.8896H35.7763V26.9459H62.1779V43.7713Z" fill="black"/>
<path d="M57.2285 32.3008H53.9283V41.4783H57.2285V32.3008Z" fill="black"/>
<path d="M48.155 32.3008H44.8548V41.4783H48.155V32.3008Z" fill="black"/>
</svg>
