<svg width="92" height="92" viewBox="0 0 92 92" fill="none" xmlns="http://www.w3.org/2000/svg">
<rect width="91.56" height="91.56" rx="20" fill="#9146FF"/>
<path d="M58.2486 49.1138L51.6482 55.2375H45.0478L39.2724 60.5958V55.2375H31.847V32.2734H58.2486V49.1138Z" fill="#9146FF"/>
<path d="M35.3302 25.875L33.3398 27.8654L29.8565 50.2578L40.3063 55.7315L41.7991 57.722L51.7513 54.2387L62.6987 45.7793L63.1963 37.8176L62.6987 26.3726L61.2059 25.875H35.3302Z" fill="white"/>
<path d="M34.1262 24.3047L25.8757 31.9594V59.5163H35.7763V67.171L44.0268 59.5163H50.6272L65.4781 45.7378V24.3047H34.1262ZM62.1779 44.2069L55.5775 50.3307H48.9771L43.2017 55.6889V50.3307H35.7763V27.3666H62.1779V44.2069Z" fill="black"/>
<path d="M57.2285 32.7266H53.9283V41.9122H57.2285V32.7266Z" fill="black"/>
<path d="M48.155 32.7266H44.8548V41.9122H48.155V32.7266Z" fill="black"/>
</svg>
