<svg width="92" height="92" viewBox="0 0 92 92" fill="none" xmlns="http://www.w3.org/2000/svg">
<rect width="91.5618" height="91.5618" rx="20" fill="black"/>
<path fill-rule="evenodd" clip-rule="evenodd" d="M55.6702 39.5558C58.7368 41.7378 62.4092 42.9036 66.1717 42.8895V35.4261C65.432 35.4282 64.6944 35.3489 63.972 35.1898V41.1356C60.201 41.1423 56.5232 39.9631 53.458 37.7646V53.1143C53.4487 55.633 52.7586 58.1023 51.4608 60.2603C50.163 62.4183 48.306 64.1845 46.0865 65.3717C43.8671 66.559 41.368 67.1229 38.8543 67.0037C36.3406 66.8846 33.906 66.0868 31.8086 64.6949C33.7486 66.6596 36.2275 68.0039 38.9314 68.5575C41.6352 69.1112 44.4424 68.8493 46.9975 67.805C49.5525 66.7608 51.7405 64.9812 53.2844 62.6915C54.8283 60.4018 55.6586 57.7051 55.6702 54.9428V39.5558ZM58.3919 31.9432C56.8324 30.2514 55.8755 28.091 55.6702 25.7984V24.8281H53.5823C53.8404 26.2854 54.402 27.6721 55.2306 28.8979C56.0592 30.1237 57.1363 31.1613 58.3919 31.9432ZM36.643 58.7864C35.9194 57.8393 35.4759 56.7078 35.3631 55.5209C35.2503 54.3339 35.4726 53.139 36.0049 52.0723C36.5371 51.0056 37.3579 50.1098 38.3737 49.487C39.3895 48.8641 40.5597 48.5392 41.7509 48.5492C42.4086 48.549 43.0624 48.6497 43.6897 48.8477V41.1356C42.9565 41.0384 42.217 40.9968 41.4775 41.0112V47.0068C39.9503 46.5236 38.2973 46.6334 36.8473 47.3145C35.3973 47.9956 34.2566 49.198 33.652 50.6826C33.0474 52.1672 33.0233 53.8251 33.5844 55.3267C34.1455 56.8282 35.2508 58.0634 36.6803 58.7864H36.643Z" fill="#EE1D52"/>
<path fill-rule="evenodd" clip-rule="evenodd" d="M53.4569 37.7149C56.5221 39.9134 60.1999 41.0925 63.9709 41.0858V35.14C61.8224 34.6853 59.8706 33.5672 58.3908 31.9432C57.1353 31.1613 56.0582 30.1237 55.2295 28.8979C54.4009 27.6721 53.8393 26.2854 53.5812 24.8281H48.0881V54.9428C48.083 56.2758 47.6609 57.5737 46.8812 58.6543C46.1014 59.735 45.0032 60.5441 43.7405 60.9681C42.4779 61.3921 41.1143 61.4097 39.8412 61.0184C38.568 60.6271 37.4493 59.8466 36.642 58.7864C35.3626 58.1403 34.3379 57.0816 33.7334 55.7811C33.1289 54.4807 32.9798 53.0143 33.3101 51.6186C33.6404 50.2229 34.4309 48.9793 35.554 48.0884C36.6771 47.1975 38.0673 46.7113 39.5004 46.7082C40.1579 46.7103 40.8114 46.811 41.4391 47.0068V41.0112C38.7269 41.0764 36.0926 41.9327 33.8598 43.4752C31.6269 45.0177 29.8926 47.1792 28.8698 49.6943C27.847 52.2094 27.5801 54.9687 28.102 57.6334C28.6238 60.2982 29.9117 62.7524 31.8075 64.6949C33.9054 66.0968 36.3438 66.9028 38.8632 67.0272C41.3825 67.1516 43.8884 66.5896 46.1139 65.4012C48.3394 64.2128 50.2011 62.4425 51.5008 60.2787C52.8005 58.115 53.4894 55.6389 53.4942 53.1143L53.4569 37.7149Z" fill="white"/>
<path fill-rule="evenodd" clip-rule="evenodd" d="M63.9716 35.1411V33.5365C61.9985 33.5449 60.0635 32.9928 58.3915 31.9443C59.8676 33.573 61.8209 34.6921 63.9716 35.1411ZM53.5819 24.8292C53.5819 24.5431 53.4949 24.2446 53.4576 23.9585V22.9883H45.8766V53.1154C45.87 54.8023 45.195 56.4178 43.9997 57.6071C42.8044 58.7965 41.1865 59.4626 39.5011 59.4593C38.5087 59.4642 37.5292 59.2341 36.6427 58.7876C37.45 59.8477 38.5687 60.6282 39.8419 61.0195C41.115 61.4108 42.4786 61.3932 43.7412 60.9692C45.0039 60.5452 46.1021 59.7361 46.8819 58.6555C47.6616 57.5748 48.0836 56.2769 48.0888 54.9439V24.8292H53.5819ZM41.4398 40.9999V39.2957C38.3203 38.8716 35.1492 39.5174 32.4433 41.1281C29.7375 42.7387 27.6564 45.2191 26.5394 48.1651C25.4223 51.111 25.335 54.3488 26.2918 57.3508C27.2486 60.3527 29.193 62.9418 31.8082 64.6961C29.9268 62.7491 28.6526 60.2958 28.1414 57.6359C27.6302 54.976 27.904 52.2246 28.9295 49.7179C29.9551 47.2113 31.6878 45.0578 33.9161 43.5206C36.1443 41.9835 38.7717 41.1292 41.4771 41.0621L41.4398 40.9999Z" fill="#69C9D0"/>
</svg>
