<svg width="92" height="92" viewBox="0 0 92 92" fill="none" xmlns="http://www.w3.org/2000/svg">
<rect width="91.5618" height="91.5618" rx="20" fill="#F7F7F7"/>
<path fill-rule="evenodd" clip-rule="evenodd" d="M55.6702 39.4451C58.7368 41.6251 62.4092 42.7899 66.1717 42.7758V35.319C65.432 35.3211 64.6944 35.2419 63.972 35.0829V41.0234C60.201 41.0301 56.5232 39.852 53.458 37.6555V52.9915C53.4487 55.508 52.7586 57.9751 51.4608 60.1312C50.163 62.2872 48.306 64.0519 46.0865 65.2381C43.8671 66.4242 41.368 66.9877 38.8543 66.8686C36.3406 66.7496 33.906 65.9525 31.8086 64.5619C33.7486 66.5248 36.2275 67.8679 38.9314 68.421C41.6352 68.9742 44.4424 68.7125 46.9975 67.6692C49.5525 66.6259 51.7405 64.8478 53.2844 62.5602C54.8283 60.2726 55.6586 57.5782 55.6702 54.8184V39.4451ZM58.3919 31.8392C56.8324 30.1489 55.8755 27.9905 55.6702 25.6998V24.7305H53.5823C53.8404 26.1865 54.402 27.5719 55.2306 28.7966C56.0592 30.0214 57.1363 31.058 58.3919 31.8392ZM36.643 58.6586C35.9194 57.7123 35.4759 56.5819 35.3631 55.3959C35.2503 54.21 35.4726 53.0162 36.0049 51.9504C36.5371 50.8847 37.3579 49.9897 38.3737 49.3674C39.3895 48.7451 40.5597 48.4205 41.7509 48.4305C42.4086 48.4303 43.0624 48.5309 43.6897 48.7287V41.0234C42.9565 40.9263 42.217 40.8848 41.4775 40.8992V46.8894C39.9503 46.4066 38.2973 46.5164 36.8473 47.1969C35.3973 47.8774 34.2566 49.0787 33.652 50.562C33.0474 52.0452 33.0233 53.7017 33.5844 55.2019C34.1455 56.7021 35.2508 57.9362 36.6803 58.6586H36.643Z" fill="#EE1D52"/>
<path fill-rule="evenodd" clip-rule="evenodd" d="M53.4569 37.6058C56.5221 39.8023 60.1999 40.9804 63.9709 40.9737V35.0332C61.8224 34.5789 59.8706 33.4618 58.3908 31.8392C57.1353 31.058 56.0582 30.0214 55.2295 28.7966C54.4009 27.5719 53.8393 26.1865 53.5812 24.7305H48.0881V54.8184C48.083 56.1502 47.6609 57.447 46.8812 58.5266C46.1014 59.6063 45.0032 60.4147 43.7405 60.8383C42.4779 61.2619 41.1143 61.2795 39.8412 60.8886C38.568 60.4977 37.4493 59.7178 36.642 58.6586C35.3626 58.0131 34.3379 56.9553 33.7334 55.656C33.1289 54.3567 32.9798 52.8916 33.3101 51.4971C33.6404 50.1027 34.4309 48.8602 35.554 47.9701C36.6771 47.08 38.0673 46.5942 39.5004 46.5911C40.1579 46.5932 40.8114 46.6938 41.4391 46.8894V40.8992C38.7269 40.9643 36.0926 41.8199 33.8598 43.361C31.6269 44.9021 29.8926 47.0617 28.8698 49.5745C27.847 52.0874 27.5801 54.8442 28.102 57.5066C28.6238 60.169 29.9117 62.6211 31.8075 64.5619C33.9054 65.9625 36.3438 66.7678 38.8632 66.8921C41.3825 67.0163 43.8884 66.4549 46.1139 65.2675C48.3394 64.0802 50.2011 62.3114 51.5008 60.1496C52.8005 57.9878 53.4894 55.5139 53.4942 52.9915L53.4569 37.6058Z" fill="black"/>
<path fill-rule="evenodd" clip-rule="evenodd" d="M63.9716 35.0327V33.4295C61.9985 33.4379 60.0635 32.8863 58.3915 31.8387C59.8676 33.4659 61.8209 34.584 63.9716 35.0327ZM53.5819 24.73C53.5819 24.4441 53.4949 24.1458 53.4576 23.86V22.8906H45.8766V52.991C45.87 54.6764 45.195 56.2904 43.9997 57.4787C42.8044 58.667 41.1865 59.3325 39.5011 59.3292C38.5087 59.3342 37.5292 59.1042 36.6427 58.6581C37.45 59.7173 38.5687 60.4971 39.8419 60.8881C41.115 61.279 42.4786 61.2614 43.7412 60.8378C45.0039 60.4142 46.1021 59.6058 46.8819 58.5261C47.6616 57.4464 48.0836 56.1497 48.0888 54.8179V24.73H53.5819ZM41.4398 40.8862V39.1836C38.3203 38.7598 35.1492 39.4051 32.4433 41.0143C29.7375 42.6235 27.6564 45.1017 26.5394 48.045C25.4223 50.9884 25.335 54.2233 26.2918 57.2226C27.2486 60.2219 29.193 62.8086 31.8082 64.5614C29.9268 62.6161 28.6526 60.165 28.1414 57.5074C27.6302 54.8499 27.904 52.101 28.9295 49.5965C29.9551 47.0921 31.6878 44.9406 33.9161 43.4048C36.1443 41.869 38.7717 41.0154 41.4771 40.9484L41.4398 40.8862Z" fill="#69C9D0"/>
</svg>
