<svg width="92" height="92" viewBox="0 0 92 92" fill="none" xmlns="http://www.w3.org/2000/svg">
<rect width="91.5618" height="91.5618" rx="20" fill="url(#paint0_linear_59774_36529)"/>
<path fill-rule="evenodd" clip-rule="evenodd" d="M23.74 26.1256C23.1883 26.3221 22.843 26.6346 22.0908 27.6181C17.1993 34.0133 15.1357 42.0143 16.3319 49.9485C16.5454 51.3655 16.9272 53.1517 17.0726 53.4149C17.1245 53.5088 17.167 53.6515 17.167 53.7319C17.167 54.6357 19.1233 59.0184 20.515 61.2322C22.7532 64.7926 23.9425 65.6044 25.4545 64.6032C26.8034 63.7097 26.7712 62.5143 25.3482 60.6403C23.0346 57.5935 21.3113 53.6239 20.7064 49.9485C20.6486 49.5968 20.5534 49.0213 20.4949 48.6697C20.349 47.7937 20.351 43.4033 20.4976 42.4231C21.2247 37.5652 22.7974 33.7988 25.6724 30.0317C26.4214 29.0502 26.5142 28.8554 26.5142 28.2634C26.5142 26.6794 25.1458 25.6249 23.74 26.1256ZM66.2481 26.4502C64.6893 26.8887 64.3027 28.8195 65.4905 30.2336C65.6762 30.4547 66.1657 31.1408 66.5777 31.7583C72.3761 40.4433 72.0047 52.3989 65.6814 60.6218C64.9634 61.5556 64.8689 61.743 64.8145 62.3416C64.662 64.0228 66.2813 65.206 67.7943 64.5188C68.8129 64.0562 71.2427 60.3821 72.5835 57.2772C76.8445 47.4098 75.3943 35.8848 68.835 27.487C68.1047 26.552 67.1897 26.1853 66.2481 26.4502ZM29.8203 31.9179C28.814 32.0746 27.1832 34.2626 25.9865 37.0618C25.8362 37.4135 25.6744 37.7898 25.6267 37.898C23.1418 43.5462 24.0431 51.7418 27.7598 57.2954C28.9941 59.1399 29.8245 59.5533 31.1009 58.9591C32.5937 58.2641 32.7268 56.9472 31.4893 55.113C27.7588 49.5845 27.5598 42.5296 30.973 36.8159C31.2962 36.2748 31.6819 35.6772 31.8302 35.4879C33.144 33.8089 31.8974 31.5945 29.8203 31.9179ZM60.3865 32.2335C59.5223 32.4533 58.8602 33.3355 58.8602 34.2668C58.8602 34.9352 58.8201 34.8467 59.9752 36.7386C60.3314 37.3222 60.7426 38.0652 60.889 38.3898C61.0356 38.7144 61.1979 39.057 61.2501 39.151C61.302 39.2449 61.3445 39.3708 61.3445 39.4311C61.3445 39.4913 61.4068 39.68 61.483 39.8506C63.0032 43.2538 62.7407 48.5713 60.8413 52.8505C60.6755 53.224 59.8977 54.5582 59.4478 55.2411C58.7079 56.3641 58.7633 57.3453 59.6126 58.1652C60.8078 59.3189 62.1602 58.9653 63.3185 57.1963C67.8157 50.3287 67.9458 41.5362 63.6555 34.4232C62.4829 32.4794 61.64 31.9147 60.3865 32.2335ZM43.9894 32.8311C33.4057 34.1665 28.9715 46.8296 36.4497 54.3615C44.012 61.9781 56.9285 57.2747 58.0066 46.5119C58.7888 38.7034 51.7664 31.8496 43.9894 32.8311ZM44.9843 40.8673C47.191 42.203 49.9041 43.8445 51.0135 44.5154C52.1228 45.1861 53.044 45.7721 53.0608 45.8171C53.0772 45.8624 52.4574 46.2743 51.6833 46.7327C50.909 47.1909 48.1567 48.8322 45.5673 50.3804C42.9777 51.9282 40.8413 53.1948 40.8199 53.1948C40.7983 53.1948 40.7808 49.8747 40.7808 45.8169C40.7808 41.099 40.8153 38.439 40.8765 38.439C40.9292 38.439 42.7777 39.5317 44.9843 40.8673Z" fill="white"/>
<defs>
<linearGradient id="paint0_linear_59774_36529" x1="46.9445" y1="90.7854" x2="45.0045" y2="-0.387231" gradientUnits="userSpaceOnUse">
<stop stop-color="#FF433A"/>
<stop offset="1" stop-color="#FF9436"/>
</linearGradient>
</defs>
</svg>
