<svg width="146" height="121" viewBox="0 0 146 121" fill="none" xmlns="http://www.w3.org/2000/svg">
<rect width="146" height="121" rx="58" fill="url(#paint0_linear_60338_33547)"/>
<path fill-rule="evenodd" clip-rule="evenodd" d="M32.4139 24.2494C31.4043 24.609 30.7723 25.1811 29.3958 26.9812C20.4446 38.6863 16.6685 53.3308 18.8574 67.8529C19.2481 70.4465 19.9467 73.7158 20.2128 74.1974C20.3077 74.3694 20.3856 74.6304 20.3856 74.7776C20.3856 76.4319 23.9655 84.4536 26.5123 88.5056C30.608 95.0222 32.7844 96.508 35.5513 94.6756C38.0198 93.0402 37.9609 90.8522 35.3569 87.4222C31.123 81.8455 27.9694 74.58 26.8625 67.8529C26.7567 67.2092 26.5825 66.1559 26.4754 65.5122C26.2085 63.9088 26.2121 55.8731 26.4804 54.0789C27.8109 45.1875 30.6891 38.2938 35.9502 31.3987C37.3208 29.6023 37.4905 29.2458 37.4905 28.1623C37.4905 25.263 34.9864 23.3329 32.4139 24.2494ZM110.202 24.8435C107.35 25.6461 106.642 29.1801 108.816 31.7683C109.155 32.173 110.051 33.4288 110.805 34.5591C121.416 50.4554 120.736 72.3379 109.165 87.3884C107.851 89.0976 107.678 89.4406 107.579 90.5362C107.3 93.6133 110.263 95.7788 113.032 94.5212C114.896 93.6745 119.342 86.9496 121.796 81.2667C129.593 63.2062 126.939 42.1118 114.936 26.7413C113.6 25.0299 111.925 24.3587 110.202 24.8435ZM43.5407 34.8512C41.6992 35.138 38.7148 39.1428 36.525 44.2661C36.2499 44.9098 35.9538 45.5985 35.8664 45.7966C31.3192 56.1347 32.9685 71.1352 39.7699 81.3C42.0287 84.676 43.5483 85.4326 45.884 84.3451C48.6159 83.073 48.8594 80.6626 46.5948 77.3056C39.7681 67.1867 39.404 54.2738 45.65 43.816C46.2414 42.8257 46.9472 41.7319 47.2187 41.3853C49.6228 38.3123 47.3416 34.2593 43.5407 34.8512ZM99.4754 35.4287C97.8941 35.8312 96.6824 37.4458 96.6824 39.1504C96.6824 40.3739 96.609 40.2118 98.7228 43.6746C99.3746 44.7428 100.127 46.1026 100.395 46.6968C100.663 47.291 100.96 47.918 101.056 48.09C101.151 48.2619 101.229 48.4924 101.229 48.6027C101.229 48.7129 101.343 49.0582 101.482 49.3706C104.264 55.5995 103.784 65.3321 100.308 73.1644C100.004 73.8481 98.581 76.2901 97.7578 77.5401C96.4038 79.5954 96.5051 81.3914 98.0593 82.8921C100.247 85.0036 102.721 84.3564 104.841 81.1186C113.071 68.5487 113.309 52.4558 105.458 39.4367C103.312 35.8789 101.769 34.8454 99.4754 35.4287ZM69.4694 36.5226C50.1017 38.9668 41.9873 62.1443 55.6721 75.93C69.5108 89.8709 93.1475 81.2622 95.1205 61.5628C96.5519 47.2707 83.7011 34.7261 69.4694 36.5226ZM71.2902 51.2314C75.3283 53.6761 80.2932 56.6807 82.3233 57.9086C84.3534 59.1361 86.0391 60.2088 86.0697 60.2911C86.0999 60.374 84.9656 61.1279 83.549 61.967C82.132 62.8056 77.0955 65.8097 72.357 68.6433C67.618 71.4764 63.7087 73.7945 63.6695 73.7945C63.6299 73.7945 63.598 67.7178 63.598 60.2907C63.598 51.6554 63.661 46.7868 63.773 46.7868C63.8694 46.7868 67.2521 48.7868 71.2902 51.2314Z" fill="white"/>
<defs>
<linearGradient id="paint0_linear_60338_33547" x1="73" y1="0" x2="73" y2="121" gradientUnits="userSpaceOnUse">
<stop stop-color="#FC681F"/>
<stop offset="1" stop-color="#FA243B"/>
</linearGradient>
</defs>
</svg>
