<svg width="64" height="64" viewBox="0 0 64 64" fill="none" xmlns="http://www.w3.org/2000/svg">
<path d="M42.6667 34.6661L56.5947 43.9514C56.7955 44.085 57.0288 44.1617 57.2697 44.1732C57.5106 44.1847 57.7501 44.1307 57.9627 44.0168C58.1754 43.903 58.3531 43.7336 58.4771 43.5268C58.6011 43.3199 58.6666 43.0832 58.6667 42.8421V20.9861C58.6668 20.7515 58.605 20.521 58.4875 20.3179C58.37 20.1149 58.201 19.9464 57.9976 19.8295C57.7942 19.7127 57.5635 19.6516 57.3289 19.6524C57.0943 19.6531 56.864 19.7158 56.6614 19.8341L42.6667 27.9994" stroke="#4A5565" stroke-width="5.33333" stroke-linecap="round" stroke-linejoin="round"/>
<path d="M37.3333 16H10.6666C7.72107 16 5.33325 18.3878 5.33325 21.3333V42.6667C5.33325 45.6122 7.72107 48 10.6666 48H37.3333C40.2788 48 42.6666 45.6122 42.6666 42.6667V21.3333C42.6666 18.3878 40.2788 16 37.3333 16Z" stroke="#4A5565" stroke-width="5.33333" stroke-linecap="round" stroke-linejoin="round"/>
</svg>
