<svg width="92" height="92" viewBox="0 0 92 92" fill="none" xmlns="http://www.w3.org/2000/svg">
<path d="M38.3333 49.8339C39.9796 52.0347 42.0799 53.8557 44.4918 55.1735C46.9037 56.4912 49.5708 57.2748 52.3122 57.4711C55.0535 57.6675 57.8051 57.2719 60.3802 56.3113C62.9552 55.3508 65.2936 53.8476 67.2367 51.9039L78.7367 40.4039C82.228 36.789 84.1599 31.9474 84.1162 26.922C84.0726 21.8966 82.0568 17.0893 78.5032 13.5357C74.9495 9.98201 70.1423 7.96627 65.1168 7.9226C60.0914 7.87893 55.2499 9.81082 51.635 13.3022L45.0417 19.8572M53.6674 42.1672C52.0212 39.9664 49.9209 38.1454 47.509 36.8276C45.0971 35.5099 42.43 34.7263 39.6886 34.53C36.9472 34.3336 34.1957 34.7292 31.6206 35.6898C29.0455 36.6503 26.7072 38.1535 24.7641 40.0972L13.2641 51.5972C9.77274 55.2121 7.84084 60.0537 7.88451 65.0791C7.92818 70.1045 9.94392 74.9118 13.4976 78.4654C17.0512 82.0191 21.8585 84.0348 26.8839 84.0785C31.9093 84.1222 36.7509 82.1903 40.3658 78.6989L46.9208 72.1439" stroke="url(#paint0_linear_60980_35769)" stroke-width="7.66667" stroke-linecap="round" stroke-linejoin="round"/>
<defs>
<linearGradient id="paint0_linear_60980_35769" x1="46.0004" y1="7.92187" x2="46.0004" y2="84.0792" gradientUnits="userSpaceOnUse">
<stop stop-color="#FC6720"/>
<stop offset="1" stop-color="#FA283A"/>
</linearGradient>
</defs>
</svg>
