<svg width="92" height="92" viewBox="0 0 92 92" fill="none" xmlns="http://www.w3.org/2000/svg">
<rect width="91.5618" height="91.5618" rx="20" fill="url(#paint0_linear_59661_25564)"/>
<path d="M38.1613 45.8991C38.1613 41.6815 41.5784 38.2615 45.7948 38.2615C50.0112 38.2615 53.4301 41.6815 53.4301 45.8991C53.4301 50.1167 50.0112 53.5366 45.7948 53.5366C41.5784 53.5366 38.1613 50.1167 38.1613 45.8991ZM34.0338 45.8991C34.0338 52.3966 39.2992 57.6635 45.7948 57.6635C52.2904 57.6635 57.5558 52.3966 57.5558 45.8991C57.5558 39.4016 52.2904 34.1347 45.7948 34.1347C39.2992 34.1347 34.0338 39.4016 34.0338 45.8991ZM55.2729 33.6682C55.2727 34.212 55.4337 34.7436 55.7355 35.1958C56.0374 35.648 56.4665 36.0006 56.9686 36.2089C57.4707 36.4172 58.0234 36.4718 58.5566 36.366C59.0898 36.2601 59.5796 35.9985 59.9641 35.6141C60.3487 35.2298 60.6106 34.74 60.7169 34.2067C60.8232 33.6735 60.769 33.1207 60.5611 32.6182C60.3533 32.1157 60.0012 31.6862 59.5493 31.384C59.0975 31.0817 58.5661 30.9202 58.0225 30.92H58.0214C57.2928 30.9203 56.594 31.21 56.0787 31.7252C55.5634 32.2405 55.2736 32.9393 55.2729 33.6682ZM36.5415 64.5479C34.3085 64.4462 33.0947 64.0741 32.2881 63.7598C31.2188 63.3434 30.4558 62.8474 29.6536 62.0461C28.8514 61.2447 28.3548 60.4823 27.9404 59.4126C27.6259 58.6061 27.254 57.3917 27.1525 55.158C27.0414 52.743 27.0192 52.0175 27.0192 45.8993C27.0192 39.781 27.0432 39.0575 27.1525 36.6406C27.2541 34.4068 27.6289 33.1948 27.9404 32.3859C28.3567 31.3163 28.8525 30.5531 29.6536 29.7506C30.4547 28.9482 31.2169 28.4515 32.2881 28.0369C33.0943 27.7224 34.3085 27.3503 36.5415 27.2488C38.9558 27.1377 39.681 27.1155 45.7948 27.1155C51.9086 27.1155 52.6346 27.1395 55.0508 27.2488C57.2839 27.3505 58.4956 27.7253 59.3042 28.0369C60.3736 28.4515 61.1366 28.9493 61.9388 29.7506C62.741 30.552 63.2357 31.3163 63.652 32.3859C63.9664 33.1924 64.3384 34.4068 64.4399 36.6406C64.551 39.0575 64.5731 39.781 64.5731 45.8993C64.5731 52.0175 64.551 52.741 64.4399 55.158C64.3382 57.3917 63.9644 58.6058 63.652 59.4126C63.2357 60.4823 62.7399 61.2455 61.9388 62.0461C61.1377 62.8467 60.3736 63.3434 59.3042 63.7598C58.498 64.0743 57.2839 64.4464 55.0508 64.5479C52.6366 64.659 51.9113 64.6812 45.7948 64.6812C39.6783 64.6812 38.9551 64.659 36.5415 64.5479ZM36.3519 23.127C33.9136 23.2381 32.2474 23.6248 30.7924 24.1912C29.2855 24.7761 28.0098 25.5607 26.735 26.8338C25.4603 28.1069 24.6779 29.385 24.0932 30.8923C23.527 32.3487 23.1404 34.0144 23.0293 36.4534C22.9165 38.8963 22.8906 39.6772 22.8906 45.8991C22.8906 52.1209 22.9165 52.9019 23.0293 55.3447C23.1404 57.7839 23.527 59.4494 24.0932 60.9058C24.6779 62.4123 25.4605 63.6918 26.735 64.9643C28.0096 66.2369 29.2855 67.0205 30.7924 67.607C32.2502 68.1733 33.9136 68.5601 36.3519 68.6711C38.7953 68.7822 39.5748 68.8099 45.7948 68.8099C52.0149 68.8099 52.7956 68.784 55.2377 68.6711C57.6762 68.5601 59.3413 68.1733 60.7972 67.607C62.3032 67.0205 63.5798 66.2375 64.8546 64.9643C66.1293 63.6912 66.9101 62.4123 67.4964 60.9058C68.0626 59.4494 68.4511 57.7837 68.5603 55.3447C68.6713 52.9001 68.6972 52.1209 68.6972 45.8991C68.6972 39.6772 68.6713 38.8963 68.5603 36.4534C68.4492 34.0142 68.0626 32.3478 67.4964 30.8923C66.9101 29.3859 66.1273 28.1089 64.8546 26.8338C63.5818 25.5587 62.3032 24.7761 60.7991 24.1912C59.3413 23.6248 57.676 23.2363 55.2396 23.127C52.7974 23.016 52.0167 22.9883 45.7966 22.9883C39.5766 22.9883 38.7953 23.0141 36.3519 23.127Z" fill="white"/>
<defs>
<linearGradient id="paint0_linear_59661_25564" x1="89.802" y1="91.5618" x2="-1.75982" y2="-2.46459e-06" gradientUnits="userSpaceOnUse">
<stop stop-color="#FBE18A"/>
<stop offset="0.21" stop-color="#FCBB45"/>
<stop offset="0.38" stop-color="#F75274"/>
<stop offset="0.52" stop-color="#D53692"/>
<stop offset="0.74" stop-color="#8F39CE"/>
<stop offset="1" stop-color="#5B4FE9"/>
</linearGradient>
</defs>
</svg>
