<svg width="24" height="16" viewBox="0 0 24 16" fill="none" xmlns="http://www.w3.org/2000/svg">
<path fill-rule="evenodd" clip-rule="evenodd" d="M3.11569 0.0505544C2.8936 0.129668 2.75458 0.255518 2.45179 0.651484C0.482749 3.2263 -0.347899 6.4477 0.133618 9.64216C0.219564 10.2127 0.373237 10.9318 0.431756 11.0378C0.452648 11.0756 0.469778 11.133 0.469778 11.1654C0.469778 11.5293 1.25725 13.2939 1.81749 14.1852C2.71844 15.6187 3.19718 15.9455 3.80583 15.5424C4.34884 15.1827 4.33587 14.7014 3.76306 13.9469C2.83171 12.7202 2.138 11.122 1.89452 9.64216C1.87125 9.50057 1.83293 9.26887 1.80937 9.12728C1.75065 8.77458 1.75144 7.00694 1.81046 6.61226C2.10315 4.65639 2.73626 3.13996 3.89356 1.62323C4.19507 1.22806 4.2324 1.14963 4.2324 0.911303C4.2324 0.273539 3.68157 -0.151043 3.11569 0.0505544ZM20.227 0.181256C19.5995 0.357802 19.4439 1.13518 19.922 1.70452C19.9968 1.79354 20.1938 2.06979 20.3597 2.31842C22.6938 5.81518 22.5443 10.6288 19.9989 13.9395C19.7098 14.3154 19.6718 14.3909 19.6499 14.6319C19.5885 15.3088 20.2404 15.7851 20.8494 15.5085C21.2594 15.3222 22.2375 13.8429 22.7772 12.5928C24.4925 8.62002 23.9087 3.97982 21.2683 0.598709C20.9744 0.222249 20.606 0.0746153 20.227 0.181256ZM5.56327 2.38268C5.1582 2.44576 4.50172 3.32671 4.02001 4.45371C3.95951 4.5953 3.89435 4.7468 3.87514 4.79036C2.87488 7.06447 3.23768 10.3642 4.73381 12.6002C5.23068 13.3428 5.56496 13.5092 6.07875 13.27C6.67968 12.9902 6.73325 12.46 6.2351 11.7215C4.73342 9.49562 4.65331 6.65514 6.02726 4.35469C6.15737 4.13686 6.31263 3.89625 6.37233 3.82C6.90118 3.14402 6.39937 2.25248 5.56327 2.38268ZM17.8674 2.50972C17.5196 2.59824 17.253 2.95341 17.253 3.32839C17.253 3.59751 17.2369 3.56187 17.7019 4.3236C17.8452 4.55857 18.0108 4.85769 18.0697 4.9884C18.1287 5.1191 18.1941 5.25703 18.2151 5.29485C18.236 5.33268 18.2531 5.38337 18.2531 5.40763C18.2531 5.43189 18.2781 5.50784 18.3088 5.57655C18.9208 6.94674 18.8151 9.08767 18.0505 10.8106C17.9838 10.961 17.6707 11.4981 17.4896 11.7731C17.1917 12.2252 17.214 12.6203 17.5559 12.9504C18.037 13.4149 18.5814 13.2725 19.0477 12.5603C20.858 9.79524 20.9104 6.25521 19.1834 3.39136C18.7113 2.60874 18.372 2.3814 17.8674 2.50972ZM11.2669 2.75033C7.00653 3.28799 5.22157 8.38644 8.23186 11.4189C11.276 14.4855 16.4755 12.5919 16.9094 8.25851C17.2243 5.11464 14.3975 2.35516 11.2669 2.75033ZM11.6674 5.98589C12.5557 6.52364 13.6479 7.18458 14.0944 7.45469C14.541 7.72471 14.9118 7.96067 14.9185 7.97879C14.9252 7.997 14.6756 8.16286 14.364 8.34742C14.0523 8.53189 12.9444 9.19272 11.9021 9.81603C10.8597 10.4392 9.9997 10.9492 9.99108 10.9492C9.98237 10.9492 9.97534 9.61245 9.97534 7.97869C9.97534 6.07916 9.9892 5.0082 10.0139 5.0082C10.035 5.0082 10.7792 5.44813 11.6674 5.98589Z" fill="#737373"/>
</svg>
